<svg xmlns="http://www.w3.org/2000/svg" width="20.548" height="15.411" viewBox="0 0 20.548 15.411"><defs><style>.a{fill:#434764;}</style></defs><path class="a" d="M18.621,59.882H1.926A1.928,1.928,0,0,0,0,61.808V73.366a1.928,1.928,0,0,0,1.926,1.926H18.621a1.928,1.928,0,0,0,1.926-1.926V61.808A1.928,1.928,0,0,0,18.621,59.882Zm0,1.284a.638.638,0,0,1,.246.05l-8.594,7.448L1.68,61.216a.639.639,0,0,1,.246-.05Zm0,12.842H1.926a.643.643,0,0,1-.642-.642V62.573L9.853,70a.643.643,0,0,0,.842,0l8.569-7.426V73.366A.643.643,0,0,1,18.621,74.008Z" transform="translate(0 -59.882)"/></svg>