<svg xmlns="http://www.w3.org/2000/svg" xmlns:xlink="http://www.w3.org/1999/xlink" width="404.111" height="476.799" viewBox="0 0 404.111 476.799"><defs><style>.a{fill:#980453;}.b{fill:url(#a);}.c{fill:url(#b);}.d{fill:url(#c);}</style><linearGradient id="a" x1="-5.915" y1="0.5" x2="14.332" y2="0.5" gradientUnits="objectBoundingBox"><stop offset="0" stop-color="#980453"/><stop offset="1" stop-color="#4a1548"/></linearGradient><linearGradient id="b" x1="0" y1="0.5" x2="1.46" y2="0.5" xlink:href="#a"/><linearGradient id="c" x1="-1.251" y1="0.5" x2="1" y2="0.5" xlink:href="#a"/></defs><g transform="translate(-165.539 -122.026)"><g transform="translate(178.465 556.318)"><path class="a" d="M203.785,658.557l-3.778-9.651H187.844l-3.736,9.651h-3.57l12-30.469H195.5l11.934,30.469Zm-4.878-12.826-3.529-9.4q-.684-1.783-1.411-4.379a39.268,39.268,0,0,1-1.307,4.379l-3.57,9.4Z" transform="translate(-180.538 -626.262)"/><path class="a" d="M219.435,658.265H215.99v-32.3h3.445Z" transform="translate(-185.438 -625.969)"/><path class="a" d="M246.628,636.981v2.179l-4.213.5a7.4,7.4,0,0,1,1.494,4.546,6.725,6.725,0,0,1-2.283,5.334,9.213,9.213,0,0,1-6.269,1.992,10.4,10.4,0,0,1-1.91-.166q-2.2,1.163-2.2,2.927a1.485,1.485,0,0,0,.768,1.38,5.6,5.6,0,0,0,2.635.447h4.027a9.013,9.013,0,0,1,5.677,1.556,5.41,5.41,0,0,1,1.982,4.525,6.46,6.46,0,0,1-3.03,5.759q-3.031,1.982-8.842,1.982a12.08,12.08,0,0,1-6.881-1.661,5.36,5.36,0,0,1-2.418-4.691A5.268,5.268,0,0,1,226.5,660a6.771,6.771,0,0,1,3.736-2.055,3.6,3.6,0,0,1-1.462-1.225,3.237,3.237,0,0,1-.592-1.93,3.66,3.66,0,0,1,.664-2.179,6.977,6.977,0,0,1,2.1-1.806,6.145,6.145,0,0,1-2.874-2.47,7.251,7.251,0,0,1-1.111-3.985,7.362,7.362,0,0,1,2.241-5.76,9.155,9.155,0,0,1,6.351-2.023,11.553,11.553,0,0,1,3.217.415Zm-18.14,26.567a3.086,3.086,0,0,0,1.556,2.8,8.6,8.6,0,0,0,4.462.955q4.337,0,6.424-1.3a3.969,3.969,0,0,0,2.086-3.518,2.787,2.787,0,0,0-1.141-2.563,8.866,8.866,0,0,0-4.3-.716h-4.131a5.434,5.434,0,0,0-3.652,1.121A4,4,0,0,0,228.488,663.549Zm1.867-19.282a4.63,4.63,0,0,0,1.349,3.612,5.386,5.386,0,0,0,3.757,1.224q5.044,0,5.043-4.9,0-5.126-5.105-5.127a5.059,5.059,0,0,0-3.737,1.307A5.27,5.27,0,0,0,230.356,644.266Z" transform="translate(-186.706 -627.434)"/><path class="a" d="M255.152,629.529a2.287,2.287,0,0,1,.582-1.733,2.149,2.149,0,0,1,2.884.01,2.244,2.244,0,0,1,.6,1.723,2.279,2.279,0,0,1-.6,1.732,2.006,2.006,0,0,1-1.431.571,1.984,1.984,0,0,1-1.453-.571A2.327,2.327,0,0,1,255.152,629.529Zm3.736,28.912h-3.445V635.693h3.445Z" transform="translate(-190.851 -626.145)"/><path class="a" d="M277.372,660.145a10.447,10.447,0,0,1-7.959-3.072Q266.5,654,266.5,648.542q0-5.5,2.709-8.739a9,9,0,0,1,7.275-3.238,8.58,8.58,0,0,1,6.766,2.812,10.779,10.779,0,0,1,2.491,7.42v2.18H270.066a9.011,9.011,0,0,0,2.024,6.081,7,7,0,0,0,5.407,2.076,18.31,18.31,0,0,0,7.264-1.537v3.072A18.2,18.2,0,0,1,281.3,659.8,19.355,19.355,0,0,1,277.372,660.145Zm-.934-20.693a5.628,5.628,0,0,0-4.369,1.785,8.225,8.225,0,0,0-1.919,4.94h11.893a7.574,7.574,0,0,0-1.453-4.991A5.114,5.114,0,0,0,276.438,639.451Z" transform="translate(-192.418 -627.434)"/><path class="a" d="M306.016,636.566a13.457,13.457,0,0,1,2.718.249l-.477,3.2a11.735,11.735,0,0,0-2.491-.311,6.062,6.062,0,0,0-4.723,2.242,8.174,8.174,0,0,0-1.961,5.583v12.2h-3.445V636.981h2.844l.395,4.213h.166a10.008,10.008,0,0,1,3.051-3.425A6.872,6.872,0,0,1,306.016,636.566Z" transform="translate(-196.446 -627.434)"/><path class="a" d="M330.213,653.523a5.7,5.7,0,0,1-2.366,4.9,11.122,11.122,0,0,1-6.642,1.723,14.452,14.452,0,0,1-7.057-1.431v-3.2a17.057,17.057,0,0,0,3.518,1.307,14.663,14.663,0,0,0,3.622.477,8.218,8.218,0,0,0,4.151-.861,2.965,2.965,0,0,0,.3-4.9,18.149,18.149,0,0,0-4.493-2.231,24.373,24.373,0,0,1-4.515-2.066,6.175,6.175,0,0,1-1.992-2,5.225,5.225,0,0,1-.654-2.678,5.1,5.1,0,0,1,2.263-4.389,10.536,10.536,0,0,1,6.206-1.609,18.164,18.164,0,0,1,7.182,1.494l-1.225,2.8a16.483,16.483,0,0,0-6.206-1.412,7.14,7.14,0,0,0-3.694.768,2.375,2.375,0,0,0-1.245,2.117,2.576,2.576,0,0,0,.467,1.556,4.609,4.609,0,0,0,1.5,1.225,33.6,33.6,0,0,0,3.985,1.681,14.894,14.894,0,0,1,5.469,2.969A5.233,5.233,0,0,1,330.213,653.523Z" transform="translate(-198.996 -627.434)"/><path class="a" d="M377.174,658.577h-6.413v-13.1H358.743v13.1h-6.434V628.232h6.434v11.893h12.018V628.232h6.413Z" transform="translate(-204.279 -626.282)"/><path class="a" d="M403.961,659.646l-1.225-3.155h-.165a9.333,9.333,0,0,1-3.289,2.791,10.625,10.625,0,0,1-4.411.779,7.128,7.128,0,0,1-5.261-1.91,7.333,7.333,0,0,1-1.92-5.438,6.123,6.123,0,0,1,2.584-5.448q2.585-1.753,7.794-1.941l4.027-.124v-1.018q0-3.529-3.612-3.528a16.479,16.479,0,0,0-6.538,1.681l-2.1-4.275a18.861,18.861,0,0,1,8.883-2.1q4.67,0,7.161,2.034t2.49,6.185v15.463ZM402.094,648.9l-2.449.082a7.852,7.852,0,0,0-4.11,1,3.128,3.128,0,0,0-1.349,2.781q0,2.679,3.071,2.678a4.866,4.866,0,0,0,3.518-1.266,4.445,4.445,0,0,0,1.318-3.362Z" transform="translate(-209.169 -627.35)"/><path class="a" d="M428.461,660.068q-10.835,0-10.834-11.893,0-5.915,2.947-9.039t8.448-3.124a16.091,16.091,0,0,1,7.222,1.578l-1.867,4.9q-1.494-.6-2.781-.985a8.964,8.964,0,0,0-2.573-.384q-4.942,0-4.941,7.015,0,6.809,4.941,6.809a11.245,11.245,0,0,0,3.382-.489,12.2,12.2,0,0,0,3.114-1.525v5.417a10.2,10.2,0,0,1-3.1,1.349A17.451,17.451,0,0,1,428.461,660.068Z" transform="translate(-213.307 -627.357)"/><path class="a" d="M450.707,645.645l2.76-3.528,6.5-7.057h7.14l-9.216,10.067,9.775,13.138h-7.305l-6.683-9.4-2.719,2.179v7.223h-6.331v-32.3h6.331v14.4l-.333,5.272Z" transform="translate(-217.038 -625.969)"/><path class="a" d="M489.7,659.646l-1.224-3.155h-.166a9.334,9.334,0,0,1-3.29,2.791,10.62,10.62,0,0,1-4.411.779,7.132,7.132,0,0,1-5.262-1.91,7.333,7.333,0,0,1-1.919-5.438,6.123,6.123,0,0,1,2.584-5.448q2.584-1.753,7.794-1.941l4.027-.124v-1.018q0-3.529-3.612-3.528a16.475,16.475,0,0,0-6.538,1.681l-2.1-4.275a18.86,18.86,0,0,1,8.883-2.1q4.67,0,7.161,2.034t2.491,6.185v15.463ZM487.836,648.9l-2.449.082a7.858,7.858,0,0,0-4.111,1,3.128,3.128,0,0,0-1.349,2.781q0,2.679,3.071,2.678a4.868,4.868,0,0,0,3.519-1.266,4.445,4.445,0,0,0,1.318-3.362Z" transform="translate(-221.02 -627.35)"/><path class="a" d="M514.406,654.3a13.692,13.692,0,0,0,3.985-.727v4.711a14.19,14.19,0,0,1-5.812,1.059q-3.8,0-5.531-1.92t-1.733-5.759V640.479h-3.031V637.8l3.487-2.117,1.827-4.9h4.047v4.94h6.5v4.753h-6.5v11.188a2.471,2.471,0,0,0,.758,1.993A2.99,2.99,0,0,0,514.406,654.3Z" transform="translate(-225.007 -626.635)"/><path class="a" d="M547.837,658.265h-6.33V644.711q0-5.022-3.737-5.023a4.247,4.247,0,0,0-3.839,1.805q-1.183,1.806-1.183,5.852v10.918h-6.331v-32.3h6.331v6.58q0,.768-.146,3.611l-.145,1.868h.332q2.116-3.4,6.725-3.4,4.089,0,6.206,2.2a8.742,8.742,0,0,1,2.117,6.31Z" transform="translate(-228.343 -625.969)"/><path class="a" d="M579.7,648.009q0,5.666-2.989,8.863t-8.323,3.2a11.65,11.65,0,0,1-5.895-1.462,9.742,9.742,0,0,1-3.923-4.2,14.131,14.131,0,0,1-1.37-6.393q0-5.686,2.969-8.842t8.343-3.155a11.708,11.708,0,0,1,5.895,1.453,9.7,9.7,0,0,1,3.923,4.172A13.991,13.991,0,0,1,579.7,648.009Zm-16.044,0a9.743,9.743,0,0,0,1.131,5.21,4.046,4.046,0,0,0,3.684,1.763,3.98,3.98,0,0,0,3.643-1.754,9.887,9.887,0,0,0,1.11-5.22,9.587,9.587,0,0,0-1.12-5.168,4.766,4.766,0,0,0-7.327-.01A9.577,9.577,0,0,0,563.652,648.009Z" transform="translate(-232.597 -627.357)"/><path class="a" d="M610.794,659.653h-6.33V646.1a6.511,6.511,0,0,0-.893-3.767,3.246,3.246,0,0,0-2.844-1.256,4.274,4.274,0,0,0-3.839,1.774q-1.183,1.774-1.183,5.883v10.918h-6.331v-23.2h4.835l.852,2.968h.352a6.676,6.676,0,0,1,2.916-2.542,9.93,9.93,0,0,1,4.224-.862q4.047,0,6.144,2.19a8.789,8.789,0,0,1,2.1,6.32Z" transform="translate(-237.044 -627.357)"/></g><g transform="translate(165.539 122.026)"><path class="b" d="M305.778,362.737a6.868,6.868,0,0,0-3.239,6.276,6.333,6.333,0,0,0,2.017,5.073,8.373,8.373,0,0,0,5.647,1.74q5.74,0,9.017-3.147t3.277-8.813V360.2l-6.147.259Q309.019,360.719,305.778,362.737Z" transform="translate(-184.474 -154.945)"/><path class="c" d="M399.174,421.752V371.844q0-17.128-10.377-24.459-9.939-7.018-28.5-7.311v81.515h-3.447v-188.1H360.3v83.3q20.128-.588,29.321-7.863,9.55-7.574,9.554-23.389v-50.4q0-25.528,17.787-39.695a62.764,62.764,0,0,1,25.424-11.812L390.11,131.352a31.841,31.841,0,0,0-45.03,0L174.865,301.567a31.84,31.84,0,0,0,0,45.029L345.079,516.811a31.843,31.843,0,0,0,45.03,0l45.535-45.536A57.76,57.76,0,0,1,416.3,461.118Q399.17,447.117,399.174,421.752Zm-132.9-74.511h-6.294V321.764H231.466v25.477h-6.3V293.1h6.3v23.032h28.513V293.1h6.294Zm43.437,0h-4.555l-1.222-5.777h-.3a17.085,17.085,0,0,1-6.055,5.166,18.462,18.462,0,0,1-7.535,1.351q-6.036,0-9.461-3.11t-3.426-8.851q0-12.293,19.663-12.886l6.888-.222v-2.518q0-4.776-2.055-7.054t-6.573-2.278a26.769,26.769,0,0,0-11.479,3.111l-1.889-4.7a28.839,28.839,0,0,1,6.573-2.555,28.473,28.473,0,0,1,7.166-.926q7.257,0,10.757,3.221t3.5,10.331Zm19.792-8.628q3.018,4,8.943,4a27.345,27.345,0,0,0,10.406-2.185v5.443a22.179,22.179,0,0,1-10.258,2.111q-8.814,0-13.646-5.425t-4.832-15.348q0-10.184,4.906-15.738T339,305.916a27.738,27.738,0,0,1,5.851.629,19.267,19.267,0,0,1,4.592,1.481l-1.888,5.222a29.009,29.009,0,0,0-4.444-1.352,19.861,19.861,0,0,0-4.258-.537q-12.368,0-12.368,15.775Q326.484,334.614,329.5,338.613Z" transform="translate(-165.539 -122.026)"/><path class="d" d="M596.341,314.752l-97.329-97.329q-36.146,1.664-36.15,32.709v48.589q0,35.416-36.73,41.836v1.977q36.728,6.423,36.73,41.836V433.29q0,16.8,9.635,24.377,7.01,5.511,18.778,7.18L596.341,359.781A31.84,31.84,0,0,0,596.341,314.752ZM492.73,306.289,490.842,345.5h-3.888l-1.888-39.214Zm-.592,53.9a4.214,4.214,0,0,1-3.3,1.314,4.5,4.5,0,0,1-3.184-1.167A5.019,5.019,0,0,1,484.4,356.5q0-5.035,4.443-5.036a4.23,4.23,0,0,1,3.314,1.3,5.414,5.414,0,0,1,1.167,3.74A5.313,5.313,0,0,1,492.138,360.186Zm48.139-48.306H523.131v48.546h-6.294V311.88H499.692v-5.591h40.585Z" transform="translate(-201.556 -135.211)"/></g></g></svg>