<svg xmlns="http://www.w3.org/2000/svg" width="146.571" height="64.311" viewBox="0 0 146.571 64.311"><defs><style>.a{fill:#e8eff7;}</style></defs><g transform="translate(-596.492 -2692)"><g transform="translate(367.854 2632.66)"><path class="a" d="M289.268,113.855c0-1.848.011-3.7-.009-5.542,0-.453.129-.621.6-.617,2.535.018,5.072.006,7.607.009a2.06,2.06,0,0,1,2.172,2.18V117.9a2.026,2.026,0,0,1-2.13,2.163c-2.554.007-5.105-.007-7.659.011-.479,0-.6-.173-.593-.623C289.279,117.584,289.268,115.72,289.268,113.855Zm3.127.018c0,.923.013,1.846-.007,2.769-.005.306.079.405.392.4q1.686-.025,3.373,0c.282,0,.368-.074.367-.365q-.019-2.794,0-5.588c0-.278-.065-.37-.356-.365-1.126.017-2.25.022-3.373,0-.354-.007-.407.125-.4.433C292.406,112.061,292.395,112.967,292.395,113.874Z" transform="translate(51.068 0.003)"/><path class="a" d="M296.146,114.613q0-2.371,0-4.741a2.046,2.046,0,0,1,2.18-2.17q3-.006,6,0a2.091,2.091,0,0,1,2.2,2.172c.013,3.178,0,6.354.009,9.531,0,.468-.164.68-.649.66-.6-.022-1.21,0-1.815-.006-.634,0-.7-.066-.706-.685,0-.807,0-1.612,0-2.419,0-.678-.02-.695-.717-.695-.942,0-1.883.013-2.824-.007-.411-.007-.573.138-.564.556.02.906-.006,1.815.011,2.723.007.391-.136.544-.531.532-.706-.018-1.411-.017-2.117,0-.376.009-.5-.144-.492-.51C296.153,117.907,296.146,116.26,296.146,114.613Zm5.111-1.045c.573,0,1.144-.013,1.715.006.286.009.424-.037.413-.376-.026-.772-.018-1.546,0-2.318.005-.275-.063-.381-.361-.378q-1.714.025-3.427,0c-.284,0-.33.107-.326.352.013.79.02,1.581,0,2.369-.007.3.111.359.378.35C300.182,113.557,300.72,113.568,301.256,113.568Z" transform="translate(56.864 0.006)"/><path class="a" d="M244.471,113.907c0,1.293.006,2.587,0,3.88a2.073,2.073,0,0,1-2.285,2.272q-2.921,0-5.842,0a2.072,2.072,0,0,1-2.263-2.244q0-3.952,0-7.908a2.074,2.074,0,0,1,2.207-2.205q3-.006,6,0a2.071,2.071,0,0,1,2.183,2.176C244.48,111.221,244.471,112.564,244.471,113.907Zm-3.143-.035c0-.94,0-1.879,0-2.819,0-.214-.013-.335-.287-.332-1.174.015-2.349.011-3.523,0-.238,0-.319.064-.317.31q.014,2.847,0,5.689c0,.251.092.315.322.313,1.157-.006,2.316-.011,3.473,0,.273,0,.337-.092.333-.348C241.32,115.752,241.328,114.812,241.328,113.872Z" transform="translate(4.585 0.006)"/><path class="a" d="M247.323,114.62q0-2.319,0-4.639a2.1,2.1,0,0,1,2.292-2.279q2.924,0,5.85,0a2.085,2.085,0,0,1,2.246,2.27q0,4.69,0,9.38c0,.65-.055.706-.722.707-.571,0-1.144,0-1.715,0-.649,0-.7-.061-.706-.731,0-.84-.007-1.68,0-2.52,0-.365-.1-.562-.514-.555-1.024.02-2.051.017-3.075,0-.4-.007-.54.166-.536.542.009.908-.017,1.817.011,2.723.013.431-.153.56-.56.545-.654-.022-1.31-.026-1.966,0-.453.018-.625-.135-.617-.606C247.338,117.848,247.323,116.234,247.323,114.62Zm5.181-4.11c-.571,0-1.142.011-1.713-.006-.251-.007-.352.048-.346.328q.028,1.208,0,2.417c-.007.28.1.326.348.324,1.142-.011,2.285-.009,3.425,0,.243,0,.365-.039.357-.324-.017-.807-.018-1.612,0-2.419.007-.287-.118-.328-.359-.322C253.645,110.517,253.074,110.509,252.5,110.509Z" transform="translate(15.734 0.007)"/><path class="a" d="M271.825,116.781c.413,0,.827.011,1.242-.006.239-.009.322.066.319.311-.015.805-.011,1.612,0,2.419a.481.481,0,0,1-.547.556c-.739,0-1.478,0-2.218,0-.38,0-.525-.2-.521-.573.011-1.177-.011-2.353.011-3.528.009-.459-.146-.626-.61-.614-1.041.026-2.084.022-3.125,0-.424-.009-.564.166-.56.567.011,1.192-.009,2.386.011,3.578.005.411-.136.582-.551.573-.739-.017-1.478-.009-2.218,0-.354,0-.509-.136-.509-.512q.014-5.668,0-11.338c0-.359.127-.521.5-.514.755.017,1.511.018,2.266,0,.378-.009.507.147.5.507-.009,1.159-.005,2.32,0,3.478,0,.614.031.641.663.641,1.01,0,2.017-.007,3.025.006.42,0,.608-.151.6-.593-.018-1.109-.006-2.216-.006-3.326,0-.63.074-.706.682-.707.672,0,1.345.009,2.017,0,.4-.009.586.162.584.566-.005,1.327,0,2.655,0,3.981a1.534,1.534,0,0,1-.129.534q-.647,1.713-1.282,3.434A1.048,1.048,0,0,0,271.825,116.781Z" transform="translate(28.564 0.005)"/><path class="a" d="M283.224,112.878c1.081-1.492,2.181-2.97,3.23-4.483a1.411,1.411,0,0,1,1.376-.7c.77.048,1.546.009,2.318.015.127,0,.293-.059.37.083.088.164-.063.282-.149.394-1.094,1.444-2.181,2.894-3.3,4.32a.7.7,0,0,0-.074.962c1.229,1.979,2.423,3.98,3.631,5.971.1.157.263.321.171.5s-.326.123-.507.125c-.805,0-1.612-.011-2.419.006a.991.991,0,0,1-.991-.615c-.778-1.5-1.577-2.983-2.408-4.547-.444.645-.851,1.231-1.249,1.822a1.164,1.164,0,0,0-.122.684c0,.689-.02,1.378.007,2.065.017.431-.123.61-.571.593-.689-.026-1.378-.022-2.065,0-.453.015-.615-.149-.614-.615.018-2.891.009-5.78.009-8.669,0-.824.017-1.647-.007-2.469-.013-.446.118-.645.6-.621.687.033,1.378.029,2.065,0,.44-.018.591.133.584.577-.022,1.376-.009,2.754-.007,4.133,0,.146.013.291.02.437Z" transform="translate(43.15 0)"/><path class="a" d="M279.17,113.388l-7.594,10.253a6.247,6.247,0,0,1,0-1.472c.07-1.912.147-3.823.245-5.732.017-.335-.094-.392-.389-.387-.986.015-1.973.006-3.027.006.409-1.094.8-2.126,1.185-3.158.6-1.6,1.2-3.2,1.791-4.807a.479.479,0,0,1,.536-.385c1.914.015,3.83.022,5.745,0,.49-.006.422.151.267.479-.746,1.577-1.465,3.165-2.215,4.739-.171.361-.168.486.284.473C277.011,113.369,278.029,113.388,279.17,113.388Z" transform="translate(33.497 0.01)"/><path class="a" d="M240.942,113.867c0-1.328,0-2.657,0-3.985a2.051,2.051,0,0,1,2.178-2.178c2.2,0,4.4.007,6.605-.007.468,0,.684.136.658.636-.031.6-.026,1.21,0,1.815.018.444-.173.591-.6.59-1.68-.013-3.361-.007-5.043-.006-.614,0-.665.048-.665.652,0,1.682.011,3.362-.009,5.043-.006.466.17.615.619.612,1.664-.017,3.329-.007,4.993-.006.626,0,.7.072.7.684s-.013,1.212,0,1.817c.011.361-.131.531-.494.531-2.336,0-4.672.022-7.009-.015A1.972,1.972,0,0,1,240.946,118C240.933,116.623,240.942,115.245,240.942,113.867Z" transform="translate(10.363 0.004)"/><path class="a" d="M312.742,111.337c0,.925-.026,1.85.006,2.773a2.162,2.162,0,0,1-2.281,2.3c-1.133-.074-1.137-.015-1.137,1.128,0,.639-.015,1.279,0,1.916.013.426-.144.621-.582.61-.672-.015-1.345-.011-2.017,0-.381.006-.544-.153-.536-.544.015-.908-.013-1.817.013-2.723.009-.343-.105-.435-.426-.407-.3.024-.6.007-.908,0a2.006,2.006,0,0,1-2.08-2.008c-.03-2.067,0-4.134-.011-6.2,0-.38.171-.5.527-.486q.959.028,1.916,0c.437-.013.6.17.593.6-.015,1.546-.007,3.092-.006,4.637,0,.621.077.7.691.7.875,0,1.748-.015,2.622.007.433.011.6-.14.593-.584-.018-1.6.006-3.193-.017-4.788-.006-.442.138-.6.58-.575.6.029,1.21.026,1.815,0,.488-.02.654.2.647.661C312.731,109.353,312.742,110.346,312.742,111.337Z" transform="translate(62.46 0.003)"/><path class="a" d="M276.227,112.63c-.676,0-1.242-.017-1.806.007-.317.013-.439-.063-.427-.409.028-.789.007-1.579.009-2.367a2.069,2.069,0,0,1,2.11-2.152c1.982-.02,3.965,0,5.947-.009.411,0,.577.182.571.579-.007.621-.011,1.244,0,1.865.007.431-.188.6-.614.591-1.376-.013-2.754.011-4.133-.013-.494-.007-.647.193-.643.656.013,1.664,0,3.327.006,4.989,0,.582.081.661.676.663,1.345,0,2.688,0,4.033,0,.588,0,.667.085.671.672s-.009,1.175,0,1.763c.009.4-.151.6-.558.6-1.982,0-3.965.035-5.947-.017-1.378-.035-2.034-.9-2.148-2.277a4.605,4.605,0,0,1,1.3-3.871A11.754,11.754,0,0,0,276.227,112.63Z" transform="translate(38.175 0.006)"/><path class="a" d="M254.221,113.908c0-1.883.009-3.764-.007-5.647,0-.407.114-.582.544-.564.671.026,1.345.026,2.017,0,.438-.018.586.14.582.582-.015,2.688-.007,5.378-.007,8.066,0,.637.046.685.684.685q2.269,0,4.538,0c.606,0,.674.07.68.656s-.017,1.177.006,1.765c.018.462-.181.617-.628.615q-3.933-.019-7.867,0c-.416,0-.551-.149-.547-.564C254.231,117.639,254.221,115.775,254.221,113.908Z" transform="translate(21.545 0.004)"/><path class="a" d="M228.647,113.873c0-1.848.013-3.7-.009-5.544-.006-.483.144-.661.636-.632a17.461,17.461,0,0,0,1.914,0c.477-.024.6.171.6.621-.017,2.67-.009,5.341-.009,8.013,0,.671.033.7.719.7,1.511,0,3.023.011,4.534-.006.475,0,.667.16.639.65-.035.619-.02,1.244,0,1.865.009.365-.138.523-.5.523-2.688,0-5.376-.006-8.064,0-.405,0-.459-.221-.457-.551C228.651,117.637,228.647,115.754,228.647,113.873Z" transform="translate(0 0.002)"/></g><g transform="translate(348.337 2485.073)"><path class="a" d="M299.909,207.453a6.771,6.771,0,0,1,2.106,1.439A7.446,7.446,0,0,1,303.454,211a6.488,6.488,0,0,1,.526,2.6v33.264a1.08,1.08,0,0,1-1.089,1.089h-7.965a.908.908,0,0,1-.737-.316,1.152,1.152,0,0,1-.28-.773V216.611h-6.421v30.248a1.163,1.163,0,0,1-.28.773.96.96,0,0,1-.739.316h-7.228a1.08,1.08,0,0,1-1.087-1.089V216.611h-6.421v30.248a.953.953,0,0,1-1.089,1.089H262.75a.953.953,0,0,1-1.087-1.089V208.016a.952.952,0,0,1,1.087-1.089h34.529a6.652,6.652,0,0,1,2.63.526Z"/><path class="a" d="M311.594,237.981a.983.983,0,0,1,.773.316,1.109,1.109,0,0,1,.314.807v7.755a1.166,1.166,0,0,1-.314.807,1.029,1.029,0,0,1-.773.316H284.329a1.013,1.013,0,0,1-1.157-1.123V208.05a1.013,1.013,0,0,1,1.157-1.123h8.351a1.014,1.014,0,0,1,1.159,1.123v28.914a.94.94,0,0,0,.35.77,1.077,1.077,0,0,0,.807.282h16.6v-.036Z" transform="translate(27.09)"/><path class="a" d="M333.56,206.927a1.115,1.115,0,0,1,.807.316,1.141,1.141,0,0,1,.35.807v38.915a1.07,1.07,0,0,1-.35.807,1.115,1.115,0,0,1-.807.316h-8.493a1.115,1.115,0,0,1-.807-.316,1.14,1.14,0,0,1-.35-.807V233.385a1.026,1.026,0,0,0-1.123-1.053h-11.9a1.243,1.243,0,0,0-.807.28,1.064,1.064,0,0,0-.35.773v13.579a1.014,1.014,0,0,1-1.159,1.123h-8.421A1.012,1.012,0,0,1,299,246.965V208.05a1.012,1.012,0,0,1,1.157-1.123h8.421a1.014,1.014,0,0,1,1.159,1.123v13.159a1.013,1.013,0,0,0,1.157,1.123h11.9a1.083,1.083,0,0,0,1.123-1.123V208.05a1.062,1.062,0,0,1,.35-.807,1.115,1.115,0,0,1,.807-.316Z" transform="translate(47.021)"/></g></g></svg>