<svg xmlns="http://www.w3.org/2000/svg" width="46.238" height="69.527" viewBox="0 0 46.238 69.527"><defs><style>.a{fill:#e8eff7;}</style></defs><g transform="translate(-126.101 -55)"><path class="a" d="M158.84,57.406V76.646a7.638,7.638,0,0,0-2.417-.387H142.007a4.377,4.377,0,0,0-4.374,4.374V99.266L127.766,89.4a5.684,5.684,0,0,1-1.665-4.02V70.913a5.684,5.684,0,0,1,1.665-4.02L138,56.665A5.685,5.685,0,0,1,142.018,55h14.416A2.406,2.406,0,0,1,158.84,57.406Z"/><g transform="translate(139.6 78.227)"><path class="a" d="M231.175,195.375v14.467a5.686,5.686,0,0,1-1.665,4.02l-10.231,10.231a5.685,5.685,0,0,1-4.02,1.665H200.842a2.406,2.406,0,0,1-2.406-2.406V181.864a2.406,2.406,0,0,1,2.406-2.406h14.416a5.74,5.74,0,0,1,4.02,1.665l10.231,10.231A5.685,5.685,0,0,1,231.175,195.375Z" transform="translate(-198.436 -179.458)"/></g></g></svg>