<svg xmlns="http://www.w3.org/2000/svg" width="56.23" height="55.762" viewBox="0 0 56.23 55.762"><defs><style>.a{fill:#e8eff7;}</style></defs><g transform="translate(696.13 -352.493)"><g transform="translate(-696.13 352.493)"><path class="a" d="M-549.861,502.948a1.813,1.813,0,0,0-1.848,1.947v.058a1.773,1.773,0,0,0,1.838,1.893,1.772,1.772,0,0,0,1.838-1.9V504.9A1.811,1.811,0,0,0-549.861,502.948Zm-5.379.145h-1.613v1.783h1.613a.873.873,0,0,0,.964-.89A.878.878,0,0,0-555.24,503.093Zm-10.228.016h-1.591v1.973h1.591a.959.959,0,0,0,1.015-.986A.965.965,0,0,0-565.468,503.109Zm15.607-.161a1.813,1.813,0,0,0-1.848,1.947v.058a1.773,1.773,0,0,0,1.838,1.893,1.772,1.772,0,0,0,1.838-1.9V504.9A1.811,1.811,0,0,0-549.861,502.948Zm-5.379.145h-1.613v1.783h1.613a.873.873,0,0,0,.964-.89A.878.878,0,0,0-555.24,503.093Zm-10.228.016h-1.591v1.973h1.591a.959.959,0,0,0,1.015-.986A.965.965,0,0,0-565.468,503.109Zm15.607-.161a1.813,1.813,0,0,0-1.848,1.947v.058a1.773,1.773,0,0,0,1.838,1.893,1.772,1.772,0,0,0,1.838-1.9V504.9A1.811,1.811,0,0,0-549.861,502.948Zm-5.379.145h-1.613v1.783h1.613a.873.873,0,0,0,.964-.89A.878.878,0,0,0-555.24,503.093Zm-10.228.016h-1.591v1.973h1.591a.959.959,0,0,0,1.015-.986A.965.965,0,0,0-565.468,503.109Z" transform="translate(589.151 -477.196)"/><path class="a" d="M-656.539,385.674q-.019-.058-.048-.193c-.019-.09-.042-.2-.061-.334-.026.129-.048.241-.068.341s-.039.167-.048.2l-.421,1.247h1.083Zm0,0q-.019-.058-.048-.193c-.019-.09-.042-.2-.061-.334-.026.129-.048.241-.068.341s-.039.167-.048.2l-.421,1.247h1.083Zm12.657-14.833-5.717-5.668a15.145,15.145,0,0,0-8.772,3.307,14.49,14.49,0,0,0-3.046,3.544,14.187,14.187,0,0,0-1.867,5.154h-.61a9.836,9.836,0,0,0-1.253-1.031,8.373,8.373,0,0,0-3.554-1.536,8.017,8.017,0,0,0-4.637.784,10.489,10.489,0,0,0-2.561,1.693,13.137,13.137,0,0,0-2.269,2.487,12.958,12.958,0,0,0-1.7,3.442c-.537-.013-1.073-.023-1.61-.032a15.376,15.376,0,0,1,3.3-5.537,12.8,12.8,0,0,1,2.021-1.754,10.706,10.706,0,0,1,4.1-1.812,9.579,9.579,0,0,1,5.987.659,8.931,8.931,0,0,1,2.285,1.552,14.652,14.652,0,0,1,1.571-3.982,14.363,14.363,0,0,1,2.42-3.117,13.593,13.593,0,0,1,2.966-2.185,14.146,14.146,0,0,1,2.14-.945,14.816,14.816,0,0,1,2.285-.595,15.751,15.751,0,0,1,2.657-.247l-8.65-8.576a13.625,13.625,0,0,0-9.6-3.952h-.013a13.947,13.947,0,0,0-9.618,3.952l-6.587,6.53-7.93,7.866a13.406,13.406,0,0,0,0,19.068l14.521,14.4a13.685,13.685,0,0,0,19.229,0l14.518-14.4A13.41,13.41,0,0,0-643.881,370.841Zm-42.985,12.143h-3.949v-5.578h1.06v4.6h2.889Zm4.939-4.557h-3.156V379.7h3.04v.98h-3.04v1.256h3.059v1.044h-4.11v-5.578h4.206Zm5.851,4.573h-2.812l.157-.379.167-.379h2.487Zm0-1.559h-2.236a11.173,11.173,0,0,1,.614-1.009,10.758,10.758,0,0,1,1.623-1.854Zm3.625-.1h-1.591v1.642H-675.1v-5.578h2.648A1.97,1.97,0,1,1-672.448,381.342Zm6.822-2.915H-668.6v1.523h2.818v.971H-668.6v2.063h-1.067v-5.569h4.046Zm1.793,2.693v1.864h-1.057V377.4h2.674a1.855,1.855,0,0,1,2.021,1.848A1.656,1.656,0,0,1-661.619,381l1.7,1.9v.084h-1.26l-1.639-1.864Zm4.839,7.3h-.836v-1.633h-1.693v1.633h-.835v-3.9h.835v1.565h1.693v-1.565h.836Zm-.736-8.188a2.8,2.8,0,0,1,2.889-2.94,2.777,2.777,0,0,1,2.883,2.931,2.748,2.748,0,0,1-2.883,2.882A2.725,2.725,0,0,1-659.729,380.234Zm4.139,8.188-.318-.829h-1.51l-.273.829h-.9l1.485-3.9h.958l1.507,3.9Zm4.409-2.889a1.649,1.649,0,0,0-.521-.331,1.518,1.518,0,0,0-.569-.106,1.333,1.333,0,0,0-1,.373,1.354,1.354,0,0,0-.37,1,1.348,1.348,0,0,0,.344.977,1.235,1.235,0,0,0,.938.363,1.691,1.691,0,0,0,.63-.116,1.724,1.724,0,0,0,.54-.338l-.007.855a2.127,2.127,0,0,1-.559.235,2.4,2.4,0,0,1-.614.077,2.113,2.113,0,0,1-1.533-.578,1.976,1.976,0,0,1-.6-1.475,1.957,1.957,0,0,1,.6-1.469,2.141,2.141,0,0,1,1.549-.578,2.97,2.97,0,0,1,.614.064,2.666,2.666,0,0,1,.582.206Zm-2.224-5.267a2.844,2.844,0,0,1,2.969-3.017,2.969,2.969,0,0,1,2.085.852l-.656.668a2.173,2.173,0,0,0-1.43-.559,1.912,1.912,0,0,0-1.934,2.056,1.772,1.772,0,0,0,1.934,1.861,1.882,1.882,0,0,0,1.269-.443v-.99H-650.6v-.938h2.407V382.1a2.794,2.794,0,0,1-2.153,1.006.778.778,0,0,1-.087,0A2.7,2.7,0,0,1-653.405,380.266Zm5.148,8.156-1.311-2.044v2.044h-.835v-3.9h.835v1.767l1.3-1.767h.964l-1.4,1.777,1.449,2.127Zm-8.329-2.94c-.019-.09-.042-.2-.061-.334-.026.129-.048.241-.068.341s-.039.167-.048.2l-.421,1.247h1.083l-.437-1.263Q-656.558,385.616-656.587,385.481Zm.048.193q-.019-.058-.048-.193c-.019-.09-.042-.2-.061-.334-.026.129-.048.241-.068.341s-.039.167-.048.2l-.421,1.247h1.083Zm0,0q-.019-.058-.048-.193c-.019-.09-.042-.2-.061-.334-.026.129-.048.241-.068.341s-.039.167-.048.2l-.421,1.247h1.083Z" transform="translate(696.13 -352.493)"/></g></g></svg>