<svg xmlns="http://www.w3.org/2000/svg" width="82.531" height="69.96" viewBox="0 0 82.531 69.96"><defs><style>.a{fill:#e8eff7;}</style></defs><g transform="translate(-2033.282 -353.466)"><path class="a" d="M2098.01,393.657v7.638l10.118,10.016-10.118,10.118v.8l5.686,1.2,12.116-12.116Z"/><path class="a" d="M2051.085,393.657v7.638l-10.118,10.016,10.118,10.118v.8l-5.686,1.2-12.116-12.116Z"/><path class="a" d="M2055.252,418.355l-.017,3.006,3.386-.711,2.414-.513,2.555-.538.129-31.151.044-10.9a11.312,11.312,0,0,1,4.96-9.424,9.855,9.855,0,0,1,11.713,0,11.3,11.3,0,0,1,4.96,9.424l.044,10.857.132,31.2,2.552.538,2.414.513,3.386.711-.017-3.009,7.021-7.018-7.1-7.1v-.123l-.12-30.984V373.1l0-1.054a19.156,19.156,0,0,0-19.158-18.581,19.347,19.347,0,0,0-18.453,13.969c-1.058,3.765-.649,7.742-.664,11.609l-.037,9.693-.058,15.354c0,.02.014.125,0,.14l-7.1,7.1Z"/></g></svg>