<svg xmlns="http://www.w3.org/2000/svg" width="95.332" height="79.615" viewBox="0 0 95.332 79.615"><defs><style>.a{fill:#fff;}</style></defs><g transform="translate(0 0)"><path class="a" d="M30.512,43.533a25.26,25.26,0,0,1-6.98,1.019,21.935,21.935,0,0,1-8.752-1.793c2.2,8.054,7.485,21.951,18.013,23.516a2.5,2.5,0,0,1,2.04,1.8l2.3,8.23a2.5,2.5,0,0,1-2.068,3.15,17.478,17.478,0,0,1-2.354.16c-12.637,0-25.152-13.19-30.433-32.076C-.821,36.458-1.73,19.8,5.906,9.315,10.179,3.448,16.413.315,24.435,0l.1,0a22.179,22.179,0,0,1,5.979,43.533Z" transform="translate(0 0.001)"/><path class="a" d="M43.845,33.06A22.231,22.231,0,0,1,30.511,43.534a25.258,25.258,0,0,1-6.979,1.019,21.94,21.94,0,0,1-8.753-1.793c2.2,8.054,7.485,21.951,18.014,23.516a2.5,2.5,0,0,1,2.04,1.8l2.3,8.23a2.5,2.5,0,0,1-2.068,3.15,17.455,17.455,0,0,1-2.354.16c-12.637,0-25.152-13.19-30.434-32.076C-.821,36.459-1.73,19.8,5.907,9.314,10.179,3.448,16.414.314,24.435,0l.1,0A22.179,22.179,0,0,1,43.845,33.06Z" transform="translate(48.626)"/></g></svg>