<svg xmlns="http://www.w3.org/2000/svg" width="88.452" height="88.452" viewBox="0 0 88.452 88.452"><defs><style>.a{fill:#fff;}</style></defs><g transform="translate(-906.825 -468.954)"><path class="a" d="M1044.533,707.683a1.5,1.5,0,0,0-.709,1.374,1.386,1.386,0,0,0,.442,1.11,1.834,1.834,0,0,0,1.236.381,2.732,2.732,0,0,0,1.974-.689,2.55,2.55,0,0,0,.717-1.929v-.8l-1.346.057A4.9,4.9,0,0,0,1044.533,707.683Z" transform="translate(-111.157 -193.247)"/><path class="a" d="M957.964,534.559V523.635q0-3.749-2.271-5.354a11.052,11.052,0,0,0-6.238-1.6v17.842H948.7V493.352h.755v18.232q4.406-.129,6.418-1.721a6.137,6.137,0,0,0,2.091-5.119V493.711a10.479,10.479,0,0,1,3.893-8.688,13.738,13.738,0,0,1,5.565-2.585L955.979,471a6.97,6.97,0,0,0-9.856,0l-37.257,37.257a6.969,6.969,0,0,0,0,9.856l37.257,37.257a6.969,6.969,0,0,0,9.856,0l9.967-9.967a12.646,12.646,0,0,1-4.234-2.223A10.5,10.5,0,0,1,957.964,534.559ZM928.874,518.25H927.5v-5.576h-6.241v5.576h-1.378V506.4h1.378v5.042H927.5V506.4h1.378Zm9.507,0h-1l-.267-1.265h-.065a3.737,3.737,0,0,1-1.325,1.131,4.041,4.041,0,0,1-1.649.3,2.967,2.967,0,0,1-2.071-.681,2.484,2.484,0,0,1-.75-1.937q0-2.691,4.3-2.821l1.508-.049v-.551a2.253,2.253,0,0,0-.45-1.544,1.85,1.85,0,0,0-1.439-.5,5.863,5.863,0,0,0-2.513.681l-.413-1.029a6.321,6.321,0,0,1,1.439-.559,6.234,6.234,0,0,1,1.568-.2,3.383,3.383,0,0,1,2.355.705,2.943,2.943,0,0,1,.766,2.261Zm4.332-1.889a2.3,2.3,0,0,0,1.957.875,5.979,5.979,0,0,0,2.278-.478v1.192a4.854,4.854,0,0,1-2.245.462,3.791,3.791,0,0,1-2.987-1.187,4.883,4.883,0,0,1-1.058-3.36,5.034,5.034,0,0,1,1.074-3.445,3.867,3.867,0,0,1,3.06-1.216,6.075,6.075,0,0,1,1.281.138,4.219,4.219,0,0,1,1.005.324l-.413,1.143a6.314,6.314,0,0,0-.973-.3,4.344,4.344,0,0,0-.932-.117q-2.707,0-2.707,3.453A4.111,4.111,0,0,0,942.714,516.361Z" transform="translate(0 0)"/><path class="a" d="M1204.674,585.654l-21.3-21.3q-7.912.364-7.913,7.159v10.635q0,7.752-8.04,9.157v.433q8.039,1.406,8.04,9.157V611.6q0,3.677,2.109,5.336a8.48,8.48,0,0,0,4.11,1.572l23-23A6.97,6.97,0,0,0,1204.674,585.654ZM1182,583.8l-.413,8.583h-.851l-.413-8.583Zm-.13,11.8a.921.921,0,0,1-.721.288.986.986,0,0,1-.7-.255,1.1,1.1,0,0,1-.275-.839q0-1.1.973-1.1a.926.926,0,0,1,.725.284,1.185,1.185,0,0,1,.255.819A1.162,1.162,0,0,1,1181.865,595.6Zm10.537-10.573h-3.753v10.626h-1.378V585.026h-3.753V583.8h8.883Z" transform="translate(-211.437 -77.402)"/></g></svg>