<svg xmlns="http://www.w3.org/2000/svg" width="47.013" height="64.245" viewBox="0 0 47.013 64.245"><defs><style>.a{fill:#fff;}</style></defs><g transform="translate(-133.123 -81.596)"><path class="a" d="M211.393,145.5c.142-1.346.188-2.712.451-4.034a14.068,14.068,0,0,1,2.213-4.55c.3-.479.63-.938.943-1.408a1.267,1.267,0,0,0-.894-1.9c-2.6-.336-5.194-.666-7.79-1.006q-3.717-.486-7.431-.987c-2.358-.318-4.715-.648-7.072-.969-1.37-.186-2.75-.317-4.109-.56a2.964,2.964,0,0,1-2.214-2.661c-.035-.806-.084-1.612-.087-2.418a15.583,15.583,0,0,1,1.15-5.334A19.726,19.726,0,0,1,200.8,107.256a15.582,15.582,0,0,1,12.626,3.091,20,20,0,0,1,5.617,6.694,14,14,0,0,1,1.5,3.848,3.13,3.13,0,0,1,.028,1.2c-.1.478-.1.719-.849.74-.876.025-1.75.147-2.622.254a1.543,1.543,0,0,1-1.683-.979,21.65,21.65,0,0,0-2.672-4.162,12.613,12.613,0,0,0-7.1-4.773,11.418,11.418,0,0,0-9.88,2.316,15.353,15.353,0,0,0-4.873,7.195c-.291.844-.132,1.223.717,1.43a23.226,23.226,0,0,0,2.509.39c1.372.179,2.745.342,4.119.507,1.138.136,2.277.262,3.415.4,1.388.167,2.775.344,4.163.512,1.093.132,2.188.252,3.282.384,1.4.17,2.8.35,4.207.518,1.36.163,2.724.3,4.081.479a5.814,5.814,0,0,1,2.864.708,3.558,3.558,0,0,1,1.619,2.316,6.73,6.73,0,0,1-.147,2.029,21.779,21.779,0,0,1-3.248,7.669,9.33,9.33,0,0,0-1.6,3.169,27.527,27.527,0,0,0-.233,3.21c-.049,1.015-.05,2.033-.092,3.048a2.688,2.688,0,0,1-2,2.055,2.445,2.445,0,0,1-2.885-2.186c-.045-.64-.061-1.282-.094-1.923-.032-.626-.07-1.252-.1-1.877Z" transform="translate(-41.762 -20.273)"/><path class="a" d="M148.524,129.143c-.63-.241-1.274-.453-1.889-.728a21.015,21.015,0,0,1-7.055-5.165,24.4,24.4,0,0,1-5.942-11.834,24.96,24.96,0,0,1-.509-5.413,28.82,28.82,0,0,1,1.141-7.466,21.864,21.864,0,0,1,3.455-6.94,24.542,24.542,0,0,1,7.118-6.423,23.6,23.6,0,0,1,7.486-3,34.976,34.976,0,0,1,3.877-.523,17.323,17.323,0,0,1,5.242.392c-1.2.24-2.337.445-3.465.7a32.452,32.452,0,0,0-8.562,3.2,26.211,26.211,0,0,0-4.594,3.214,22.771,22.771,0,0,0-5.38,6.9,20.631,20.631,0,0,0-2.075,6.271,35.746,35.746,0,0,0-.371,3.953,25.652,25.652,0,0,0,2.518,11.906A27.392,27.392,0,0,0,144.026,125a26.376,26.376,0,0,0,4.489,3.945c.021.015.03.049.044.074Z" transform="translate(0)"/><path class="a" d="M248.876,342.818a2.028,2.028,0,0,1,1.666-2.005q5.463-1.453,10.928-2.9c.737-.2,1.472-.4,2.213-.576a2.233,2.233,0,0,1,2.687,1.651,2.049,2.049,0,0,1-1.615,2.532q-6.481,1.725-12.964,3.441A2.227,2.227,0,0,1,248.876,342.818Z" transform="translate(-92.467 -204.245)"/><path class="a" d="M259.618,320.663a2.2,2.2,0,0,1-1.483,2.1q-3.756,1.221-7.526,2.4a1.587,1.587,0,0,1-2.1-1.637,2.221,2.221,0,0,1,1.474-2.063c2.517-.82,5.038-1.631,7.568-2.411A1.559,1.559,0,0,1,259.618,320.663Z" transform="translate(-92.173 -189.619)"/><path class="a" d="M265.722,374.372a2.21,2.21,0,0,1,1.554-2.137q3.63-1.172,7.267-2.322a1.616,1.616,0,0,1,1.826.35,1.791,1.791,0,0,1,.329,1.931,2.137,2.137,0,0,1-1.411,1.4c-2.479.792-4.956,1.592-7.441,2.366A1.567,1.567,0,0,1,265.722,374.372Z" transform="translate(-105.925 -230.215)"/></g></svg>