<svg xmlns="http://www.w3.org/2000/svg" xmlns:xlink="http://www.w3.org/1999/xlink" width="637.429" height="306.65" viewBox="0 0 637.429 306.65"><defs><style>.a{fill:#1f2441;}.b{fill:#434764;}.c{fill:#5b5f7b;}.d{fill:#616e7d;stroke:rgba(0,0,0,0);stroke-miterlimit:10;}.e{filter:url(#a);}</style><filter id="a" x="0" y="0" width="637.429" height="306.65" filterUnits="userSpaceOnUse"><feOffset dy="-2" input="SourceAlpha"/><feGaussianBlur stdDeviation="3" result="b"/><feFlood flood-opacity="0.161"/><feComposite operator="in" in2="b"/><feComposite in="SourceGraphic"/></filter></defs><g transform="translate(-147.998 -361.737)"><g class="e" transform="matrix(1, 0, 0, 1, 148, 361.74)"><path class="a" d="M531.195,414.169H518.553c0-22.887-23.222-41.432-51.843-41.432-28.645,0-51.843,18.544-51.843,41.432H402.223a144.22,144.22,0,1,0,1,205.005H530.207a144.3,144.3,0,1,0,.988-205.005ZM301.252,642.191A125.066,125.066,0,1,1,426.317,517.126,125.066,125.066,0,0,1,301.252,642.191Zm455.98-125.074A125.067,125.067,0,1,1,632.166,392.052,125.07,125.07,0,0,1,757.232,517.117Z" transform="translate(-148 -361.74)"/></g><path class="b" d="M182.023,523.008A125.067,125.067,0,1,0,307.092,397.941,125.066,125.066,0,0,0,182.023,523.008Zm239.9,0a114.832,114.832,0,1,1-114.83-114.834A114.835,114.835,0,0,1,421.923,523.008Z" transform="translate(-5.84 -5.882)"/><path class="c" d="M195.374,526.123A114.832,114.832,0,1,0,310.208,411.289,114.832,114.832,0,0,0,195.374,526.123Zm186.841,0a72.011,72.011,0,1,1-72.007-72A72.009,72.009,0,0,1,382.215,526.123Z" transform="translate(-8.956 -8.997)"/><path class="d" d="M-3473.29-2713.2a72.018,72.018,0,0,1,72.015-72,72.017,72.017,0,0,1,72.007,72,72.009,72.009,0,0,1-72.007,72A72.01,72.01,0,0,1-3473.29-2713.2Zm98.188,0a26.383,26.383,0,0,0-.38-4.474A26.383,26.383,0,0,1-3375.1-2713.2Zm-52.357,0a26.169,26.169,0,0,1,26.185-26.177h0A26.17,26.17,0,0,0-3427.459-2713.2Zm-17.565-18.456a2.754,2.754,0,0,1-.9-.15A2.748,2.748,0,0,0-3445.025-2731.652Zm2.206-1.021.058-.07Zm-14.743-7.082-.4.758a2.946,2.946,0,0,0-.156.945,2.948,2.948,0,0,1,.156-.944l.4-.759a80.179,80.179,0,0,1,64.361-33.217,2.95,2.95,0,0,1,.352.021,2.95,2.95,0,0,0-.352-.021A80.181,80.181,0,0,0-3457.562-2739.755Z" transform="translate(3702.526 3230.322)"/><path class="b" d="M613.68,523A125.067,125.067,0,1,0,738.749,397.932,125.061,125.061,0,0,0,613.68,523Zm239.886,0A114.83,114.83,0,1,1,738.749,408.162,114.819,114.819,0,0,1,853.566,523Z" transform="translate(-106.583 -5.88)"/><path class="c" d="M627.019,526.111A114.83,114.83,0,1,0,741.862,411.276,114.831,114.831,0,0,0,627.019,526.111Zm186.841,0a72.009,72.009,0,1,1-72-72A72,72,0,0,1,813.86,526.111Z" transform="translate(-109.696 -8.994)"/><path class="d" d="M-3473.29-2713.2a72.016,72.016,0,0,1,72.021-72,72,72,0,0,1,72,72,72,72,0,0,1-72,72.009A72.02,72.02,0,0,1-3473.29-2713.2Zm72.021,26.191a26.2,26.2,0,0,1-26.165-24.927A26.2,26.2,0,0,0-3401.269-2687.011Zm26.19-26.191a26.189,26.189,0,0,0-26.19-26.176,26.193,26.193,0,0,0-26.2,26.176,26.194,26.194,0,0,1,26.2-26.176A26.189,26.189,0,0,1-3375.079-2713.2Zm-70.64-18.547-.026-.006Zm-.035-.009c-.056-.015-.112-.033-.167-.052C-3445.866-2731.792-3445.81-2731.774-3445.754-2731.758Zm-11.807-8-.4.763a2.914,2.914,0,0,0-.155.939,2.91,2.91,0,0,1,.155-.938l.4-.764a80.191,80.191,0,0,1,63.016-33.2A80.192,80.192,0,0,0-3457.562-2739.757Zm67.116-31.32a2.8,2.8,0,0,0-.376-.68A2.827,2.827,0,0,1-3390.445-2771.077Z" transform="translate(4033.436 3230.319)"/></g></svg>